<?xml version="1.0" encoding="UTF-8" standalone="no"?>
<svg xmlns:dc="http://purl.org/dc/elements/1.1/" xmlns:cc="http://creativecommons.org/ns#" xmlns:rdf="http://www.w3.org/1999/02/22-rdf-syntax-ns#" xmlns:svg="http://www.w3.org/2000/svg" xmlns="http://www.w3.org/2000/svg" xmlns:sodipodi="http://sodipodi.sourceforge.net/DTD/sodipodi-0.dtd" xmlns:inkscape="http://www.inkscape.org/namespaces/inkscape" width="100%" height="100%" viewBox="0 0 96 25" version="1.1" xml:space="preserve" style="fill-rule:evenodd;clip-rule:evenodd;stroke-linejoin:round;stroke-miterlimit:1.41421;" id="svg12" sodipodi:docname="logo.svg" inkscape:export-filename="/home/joey/Desktop/logo-white.png" inkscape:export-xdpi="533.76001" inkscape:export-ydpi="533.76001" inkscape:version="0.92.3 (2405546, 2018-03-11)"><metadata id="metadata18"><rdf:RDF><cc:Work rdf:about=""><dc:format>image/svg+xml</dc:format><dc:type rdf:resource="http://purl.org/dc/dcmitype/StillImage"/></cc:Work></rdf:RDF></metadata>
    <defs id="defs16"/>
    <sodipodi:namedview pagecolor="#ffffff" bordercolor="#666666" borderopacity="1" objecttolerance="10" gridtolerance="10" guidetolerance="10" inkscape:pageopacity="0" inkscape:pageshadow="2" inkscape:window-width="2493" inkscape:window-height="1385" id="namedview14" showgrid="false" inkscape:zoom="3.8125" inkscape:cx="48" inkscape:cy="12.5" inkscape:window-x="1987" inkscape:window-y="27" inkscape:window-maximized="1" inkscape:current-layer="svg12"/>
    <path d="M11.927,6.179l-1.76,0l-1.078,4.993l1.832,0c2.299,0 3.592,-1.257 3.592,-3.125c0,-1.293 -0.898,-1.868 -2.586,-1.868m-1.042,8.55l-2.551,0l-1.149,5.496l2.299,0c2.479,0 4.311,-1.078 4.311,-3.449c0,-1.437 -1.006,-2.047 -2.91,-2.047m5.82,-2.371c2.299,0.682 3.592,2.119 3.592,4.49c0,5.388 -4.131,7.723 -10.454,7.723l-9.843,0l3.88,-18.392l-2.73,0l0.898,-4.347l11.423,0c3.808,0 7.185,0.898 7.185,5.137c0,2.299 -1.329,4.383 -3.951,5.389" style="fill-rule:nonzero;fill:#0A96E6;fill-opacity:1" id="path2"/>
    <path d="M32.618,10.633c-2.012,0 -3.592,2.335 -4.239,4.454c0.359,0.036 0.718,0.072 0.97,0.072c2.694,0 4.598,-1.185 4.598,-3.233c0,-0.682 -0.359,-1.293 -1.329,-1.293m-2.047,7.831c-0.899,0 -1.94,-0.036 -2.767,-0.18c0.036,1.797 1.293,2.695 3.198,2.695c1.939,0 4.31,-0.791 6.142,-1.832l-0.826,4.023c-1.832,1.042 -4.454,1.724 -6.789,1.724c-2.407,0 -4.491,-0.682 -5.748,-1.796c-1.257,-1.113 -1.976,-2.73 -1.976,-4.814c0,-6.142 4.958,-11.459 11.568,-11.459c3.735,0 6.034,1.832 6.034,5.137c0,3.664 -3.628,6.502 -8.836,6.502" style="fill-rule:nonzero;fill:#0A96E6;fill-opacity:1" id="path4"/>
    <path d="M50.831,10.633c-2.012,0 -3.592,2.335 -4.239,4.454c0.359,0.036 0.718,0.072 0.97,0.072c2.694,0 4.598,-1.185 4.598,-3.233c0,-0.682 -0.359,-1.293 -1.329,-1.293m-2.047,7.831c-0.899,0 -1.94,-0.036 -2.767,-0.18c0.036,1.797 1.293,2.695 3.198,2.695c1.939,0 4.31,-0.791 6.142,-1.832l-0.826,4.023c-1.832,1.042 -4.454,1.724 -6.789,1.724c-2.407,0 -4.491,-0.682 -5.748,-1.796c-1.257,-1.113 -1.976,-2.73 -1.976,-4.814c0,-6.142 4.958,-11.459 11.568,-11.459c3.735,0 6.035,1.832 6.035,5.137c0,3.664 -3.629,6.502 -8.837,6.502" style="fill-rule:nonzero;fill:#0A96E6;fill-opacity:1" id="path6"/>
    <path d="M75.367,13.327l-5.712,0.144c0.072,-0.395 0.144,-0.791 0.144,-1.15c0,-0.898 -0.359,-1.688 -1.365,-1.688c-1.186,0 -2.227,1.149 -2.91,2.443c-0.754,1.401 -1.293,3.448 -1.293,5.172c0,1.868 1.185,2.731 3.089,2.731c1.976,0 4.275,-0.827 6.107,-1.868l-0.862,3.987c-1.581,1.006 -4.275,1.796 -6.61,1.796c-2.227,0 -4.311,-0.575 -5.64,-1.652c-1.329,-1.114 -2.119,-2.766 -2.119,-4.994c0,-6.394 4.598,-11.423 10.705,-11.423c4.167,0 6.61,2.083 6.61,5.065c0,0.431 -0.072,1.078 -0.144,1.437" style="fill-rule:nonzero;fill:#0A96E6;fill-opacity:1" id="path8"/>
    <path d="M94.801,23.781c-1.149,0.682 -2.407,1.114 -3.988,1.114c-2.155,0 -3.736,-0.934 -3.736,-3.305c0,-0.539 0.108,-1.258 0.252,-2.012l1.114,-5.353c0.108,-0.538 0.179,-1.041 0.179,-1.401c0,-1.149 -0.611,-1.652 -1.616,-1.652c-0.898,0 -1.725,0.467 -2.263,1.293c-0.468,0.719 -0.827,1.725 -1.222,3.592l-1.796,8.514l-5.999,0l5.137,-24.571l6.107,0l-1.868,8.478c0.97,-0.934 2.514,-1.653 4.274,-1.653c3.234,0 5.425,1.797 5.425,4.814c0,0.862 -0.18,1.868 -0.359,2.766l-1.078,5.065c-0.072,0.359 -0.144,0.683 -0.144,0.934c0,0.467 0.288,0.719 0.791,0.719c0.431,0 0.969,-0.252 1.472,-0.503l-0.682,3.161Z" style="fill-rule:nonzero;fill:#0A96E6;fill-opacity:1" id="path10"/></svg>